<svg width="1205" height="1205" viewBox="0 0 1205 1205" fill="none" xmlns="http://www.w3.org/2000/svg">
<rect width="1205" height="1205" fill="#0050FF"/>
<path d="M575 604.43C575 639.462 555.972 604.43 532.5 604.43C509.028 604.43 490 639.462 490 604.43C490 569.399 509.028 541 532.5 541C555.972 541 575 569.399 575 604.43Z" fill="white"/>
<path d="M709 604.43C709 639.462 689.972 604.43 666.5 604.43C643.028 604.43 624 639.462 624 604.43C624 569.399 643.028 541 666.5 541C689.972 541 709 569.399 709 604.43Z" fill="white"/>
<path d="M596.752 300.184C596.88 300.16 597.005 300.136 597.129 300.113C616.334 299.327 636.597 302.679 654.541 309.169C671.51 315.305 686.689 324.118 702.296 332.538L749.821 357.933L819.983 395.633C838.327 405.646 855.291 413.725 871.492 427.271C899.223 450.315 916.725 483.393 920.19 519.296C921.202 530.611 920.986 542.043 920.958 553.401L920.917 595.002L920.958 643.453C920.976 663.386 921.634 682.458 916.992 702.051C911.972 722.85 902.181 742.189 888.392 758.544C879.585 769.047 869.334 778.247 857.946 785.872C841.631 796.849 820.949 807.251 803.396 816.34C784.596 826.254 765.731 836.048 746.811 845.736L688.419 875.527C661.995 888.899 638.631 902.284 608.563 904.899C574.159 906.253 552.914 893.752 523.319 878.741L465.348 849.106L407.811 819.439C384.743 807.661 352.713 791.655 333.408 775.461C306.149 752.59 286.232 715.445 284.652 679.76C283.613 656.272 284.13 629.796 284.12 605.773L284.106 558.527C284.102 536.942 283.216 515.932 289.258 494.965C295.312 474.096 306.185 455.573 320.669 439.495C338.299 419.924 360.641 408.988 383.349 396.573C407.011 383.736 430.752 371.043 454.569 358.496L510.459 328.574C542.16 311.785 559.676 302.446 596.752 300.184ZM588.039 839.515C597.607 832.682 607.141 825.991 617.047 819.651C633.247 809.277 650.957 801.394 668.151 792.779L749.54 752.162L774.933 739.481C788.888 732.671 806.11 725 817.682 715.054C830.018 704.395 838.23 689.752 840.895 673.664C842.275 665.436 841.898 651.829 841.902 642.956L841.852 596.002L841.875 557.967C841.893 538.421 842.813 528.144 833.887 509.98C821.717 485.213 800.037 477.346 777.298 465.912L722.463 438.399L663.104 408.68C651.804 402.958 637.462 395.111 626.079 390.234C621.703 388.348 617.107 387.026 612.395 386.298C608.664 385.684 600.212 385.038 596.669 385.808C581.391 387.705 573.413 392.95 560.015 399.718L532.197 413.676L472.425 443.735L424.688 467.7C406.667 476.702 390.232 482.98 377.417 499.569C361.1 520.692 362.576 541.417 362.572 566.417L362.598 617.534L362.599 649.26C362.603 655.697 362.388 664.054 363.181 670.279C365.385 689.011 375.129 706.034 390.163 717.412C398.801 724.056 407.029 727.546 416.718 732.317C426.699 737.243 436.713 742.11 446.758 746.908L528.945 786.765L551.492 797.719C553.984 798.93 556.514 800.197 559.045 801.316C565.5 804.166 563.223 815.917 562.828 821.741L561.308 843.765C561.075 846.905 560.491 850.267 560.695 853.393C560.777 854.65 561.003 856.041 561.946 856.948C562.428 857.413 563.137 857.514 563.789 857.427C565.236 857.229 585.294 841.711 588.039 839.515Z" fill="white"/>
</svg>
